<svg version="1.1" id="Layer_1" xmlns="http://www.w3.org/2000/svg" xmlns:xlink="http://www.w3.org/1999/xlink" x="0px" y="0px"
	 width="100%" viewBox="0 0 540 540" enable-background="new 0 0 540 540" xml:space="preserve">
<path fill="#FEFFFF" opacity="1.000000" stroke="none" 
	d="
M376.000000,541.000000 
	C250.695541,541.000000 125.891090,541.000000 1.043316,541.000000 
	C1.043316,361.070526 1.043316,181.141037 1.043316,1.105774 
	C180.887787,1.105774 360.775635,1.105774 540.831787,1.105774 
	C540.831787,180.999863 540.831787,360.999939 540.831787,541.000000 
	C486.140991,541.000000 431.320496,541.000000 376.000000,541.000000 
M468.014008,425.245148 
	C468.014008,424.133453 468.014008,423.021790 468.014008,421.910095 
	C467.469086,422.043152 466.924133,422.176178 466.379211,422.309235 
	C466.909210,423.549225 467.439209,424.789215 467.758698,426.607788 
	C468.715515,427.474091 469.672333,428.340393 470.629150,429.206696 
	C470.875977,428.774933 471.122803,428.343201 471.369629,427.911438 
	C470.256989,427.263977 469.144318,426.616486 468.014008,425.245148 
M246.009750,245.998398 
	C246.009750,245.998398 246.060822,246.059708 246.811249,246.051865 
	C250.861862,243.667236 256.965271,244.196869 259.338776,237.880722 
	C254.197708,237.880722 250.091888,237.880722 245.073944,237.650436 
	C237.072968,237.788834 229.071976,237.927231 220.807358,237.645142 
	C220.380325,237.550644 219.953308,237.456146 219.344147,237.321335 
	C219.683716,237.759018 219.893356,238.127777 220.197296,238.385254 
	C220.390045,238.548553 220.723160,238.546204 221.696167,238.949402 
	C229.452332,241.317017 237.208511,243.684647 245.173508,246.359711 
	C245.465927,246.261261 245.758347,246.162827 246.009750,245.998398 
M245.897171,175.503204 
	C245.537140,175.624237 245.177109,175.745270 244.008072,175.874374 
	C227.384384,180.259705 210.760681,184.645035 194.275284,188.993881 
	C194.275284,191.735352 194.275284,193.976898 194.275284,196.696960 
	C211.787247,192.632278 228.887344,188.663193 246.669861,184.954849 
	C254.752594,188.673080 262.835327,192.391327 271.236267,196.820389 
	C271.586090,199.224930 271.935944,201.629486 272.364777,204.576797 
	C275.078918,203.053009 277.654999,201.644302 280.195312,200.173752 
	C289.224365,194.946945 298.241211,189.699066 307.704468,184.338959 
	C307.704468,184.338959 308.007019,183.994308 308.739166,184.056656 
	C312.506622,181.977600 316.191711,179.726837 320.065247,177.869034 
	C323.746735,176.103302 326.649353,174.238815 325.732056,169.369705 
	C325.040558,165.699066 326.005066,161.189758 324.191162,158.364182 
	C320.097046,151.986649 314.812347,146.356506 309.805298,140.602203 
	C309.138580,139.835983 307.269989,140.115570 305.253845,140.047348 
	C294.161652,146.351730 283.069458,152.656097 271.338074,158.775284 
	C269.708893,157.153198 268.096985,155.513336 266.447571,153.912109 
	C259.646912,147.310257 252.834808,140.720123 245.292709,133.915161 
	C229.635895,141.115265 214.039047,148.451126 198.277878,155.415054 
	C194.576828,157.050339 192.932678,158.862854 194.460815,163.140656 
	C211.639999,156.677826 228.816864,150.215851 246.632202,144.035629 
	C247.837250,144.901962 249.043594,145.766479 250.247116,146.634918 
	C257.453278,151.834732 264.658783,157.035477 271.835144,163.127701 
	C271.899017,166.460968 271.962921,169.794250 271.376221,173.645782 
	C269.733429,172.645447 267.990875,171.776871 266.464935,170.622086 
	C259.626617,165.447052 252.849960,160.190536 245.260590,154.765411 
	C228.166824,160.889664 211.073074,167.013916 194.311401,173.019196 
	C194.311401,175.701981 194.311401,177.745468 194.311401,180.048065 
	C211.780899,174.642914 228.847961,169.362289 246.602432,164.443375 
	C255.018204,169.382965 263.433990,174.322571 271.827606,180.137039 
	C271.846832,183.359116 271.866058,186.581192 271.188965,189.834412 
	C269.157166,188.751282 267.104431,187.705338 265.097412,186.578110 
	C258.765045,183.021606 252.449814,179.434631 246.088074,175.927353 
	C246.088074,175.927353 246.115479,175.869141 245.897171,175.503204 
M246.567780,123.452873 
	C250.284393,126.715759 254.025543,129.951248 257.710602,133.249390 
	C261.235626,136.404297 264.702332,139.624359 268.194702,142.815796 
	C268.644562,142.421295 269.094452,142.026794 269.544342,141.632309 
	C262.132202,131.829956 254.733337,122.017349 245.315475,113.047256 
	C228.965683,122.211853 212.579941,131.313889 196.329498,140.651382 
	C194.921707,141.460297 194.407211,143.823822 193.477768,145.465210 
	C193.921707,145.770477 194.365631,146.075729 194.809570,146.380997 
	C211.843491,138.607910 228.877396,130.834824 246.567780,123.452873 
M244.404083,196.245743 
	C244.099289,196.403976 243.794479,196.562210 242.663727,196.707413 
	C226.532623,199.505508 210.401520,202.303604 194.232819,205.108231 
	C194.232819,207.862625 194.232819,210.269501 194.232819,213.376953 
	C210.773926,210.774872 226.936081,208.232407 243.936325,205.811981 
	C248.250961,206.756851 252.737946,207.238159 256.837250,208.762177 
	C262.133148,210.731079 265.959656,208.939362 270.078613,205.369308 
	C261.772827,202.279861 253.881363,199.344513 245.460495,196.217896 
	C245.280106,196.269547 245.099716,196.321182 244.404083,196.245743 
M245.102859,216.979095 
	C228.143158,218.436050 211.183456,219.893005 194.241760,221.348404 
	C194.241760,224.343460 194.241760,226.924728 194.241760,230.037918 
	C211.709229,228.607590 228.851395,227.203903 246.773788,226.006805 
	C250.600052,226.667542 254.426331,227.328278 260.103210,228.308578 
	C258.630371,224.344589 258.378326,220.416733 256.459473,219.264328 
	C253.589584,217.540756 249.547195,217.769455 245.102859,216.979095 
M283.656067,333.244171 
	C322.125092,330.097412 360.450378,325.658661 398.775208,321.064880 
	C398.074585,320.219360 397.439667,320.048767 396.808258,320.060669 
	C358.874084,320.774628 320.940247,321.503662 282.119141,322.035980 
	C235.829041,320.657623 189.538956,319.279236 143.248856,317.900848 
	C143.097076,318.418671 142.945297,318.936523 142.793533,319.454346 
	C143.686707,319.961731 144.542435,320.823334 145.478790,320.922302 
	C155.885803,322.022308 166.300186,323.060394 176.722473,324.006378 
	C197.908630,325.929260 219.095901,327.843719 240.292343,329.648315 
	C254.527512,330.860291 268.779266,331.877655 283.656067,333.244171 
M282.064667,299.596771 
	C273.257751,300.180115 264.440796,300.641876 255.645859,301.369568 
	C229.268524,303.552155 202.900986,305.852875 176.527069,308.077087 
	C166.574600,308.916412 156.609238,309.609955 146.665878,310.541870 
	C145.363892,310.663879 144.158203,311.813324 142.907913,312.486908 
	C143.154633,312.967133 143.401337,313.447388 143.648056,313.927612 
	C145.297165,313.927612 146.946671,313.951294 148.595322,313.924072 
	C169.083038,313.585846 189.570724,313.246521 210.058212,312.894989 
	C234.372025,312.477844 258.685638,312.048584 283.920441,311.788574 
	C322.254303,312.463654 360.588135,313.138733 398.921997,313.813812 
	C399.096741,313.337585 399.271454,312.861359 399.446167,312.385162 
	C398.321198,311.710999 397.261810,310.631866 396.059204,310.437103 
	C392.126556,309.800201 388.145782,309.444366 384.176331,309.053406 
	C361.513947,306.821198 338.855286,304.548492 316.183228,302.418365 
	C305.133057,301.380157 294.056671,300.621399 282.064667,299.596771 
M282.112244,272.668030 
	C280.791138,272.831757 279.446045,272.887573 278.152405,273.174957 
	C245.411911,280.448303 212.680542,287.762848 179.938675,295.029907 
	C168.913040,297.477051 157.847885,299.748688 146.842422,302.281311 
	C145.372787,302.619537 144.148956,304.025879 142.811279,304.937561 
	C143.097488,305.382080 143.383698,305.826599 143.669891,306.271118 
	C150.903870,305.348053 158.150848,304.516144 165.369446,303.485352 
	C189.880295,299.985229 214.384003,296.434479 238.884705,292.863922 
	C253.667358,290.709625 268.439453,288.482697 284.010559,286.582397 
	C322.262970,292.156219 360.515411,297.730011 398.767822,303.303802 
	C399.045990,302.763550 399.324158,302.223267 399.602325,301.683014 
	C398.156342,300.819183 396.813141,299.539703 395.249176,299.152985 
	C365.265900,291.739044 335.272034,284.366241 305.241913,277.144806 
	C297.891907,275.377319 290.405640,274.176483 282.112244,272.668030 
M284.161407,245.089798 
	C282.883392,245.374939 281.562866,245.537506 280.333618,245.963425 
	C257.917633,253.729858 235.505325,261.507233 213.107193,269.325043 
	C190.553711,277.197083 168.007080,285.089203 145.500717,293.094177 
	C144.379059,293.493134 143.669342,295.050354 142.767822,296.068268 
	C143.127594,296.430725 143.487350,296.793182 143.847122,297.155640 
	C147.062607,296.414795 150.298187,295.751312 153.490417,294.921082 
	C181.601013,287.610168 209.711258,280.297668 237.806076,272.926483 
	C252.879120,268.971802 267.921753,264.901215 283.739838,261.002625 
	C322.029388,271.276611 360.318939,281.550629 398.608490,291.824615 
	C398.892456,291.393707 399.176422,290.962799 399.460388,290.531860 
	C398.318695,289.694122 397.291107,288.568481 396.017487,288.063599 
	C384.591797,283.534973 373.138062,279.075806 361.663544,274.671875 
	C336.090454,264.856964 310.500610,255.085693 284.161407,245.089798 
M379.392975,238.460846 
	C379.392670,225.149200 379.020416,211.822739 379.549103,198.532135 
	C379.813232,191.892197 378.107086,186.660706 373.607758,181.960419 
	C370.752808,178.977966 368.311890,175.601227 365.654114,172.427414 
	C362.335876,168.464874 358.985504,164.529175 354.889008,159.682755 
	C354.889008,194.153000 354.878448,227.253830 354.939301,260.354523 
	C354.941132,261.359100 355.416595,262.944763 356.128998,263.276459 
	C363.586395,266.748718 371.137390,270.019928 379.393188,273.669891 
	C379.393188,261.674225 379.393188,250.559433 379.392975,238.460846 
M161.677444,249.119385 
	C161.677444,259.718109 161.677444,270.316803 161.677444,281.909088 
	C165.908493,280.103027 169.346207,278.589996 172.818832,277.161896 
	C183.075012,272.944122 183.080734,272.957245 183.081192,261.799561 
	C183.081650,250.764862 183.081299,239.730164 183.081299,227.588394 
	C176.643768,232.374542 171.280853,236.747604 165.512039,240.496017 
	C162.396439,242.520477 161.138046,244.775970 161.677444,249.119385 
M396.790161,365.701904 
	C395.833649,365.040192 394.908936,364.325867 393.915527,363.725159 
	C386.690887,359.356567 378.735626,360.431183 373.047546,366.518951 
	C368.034668,371.884125 367.312042,381.438690 371.472168,387.348358 
	C375.755188,393.432465 384.263153,395.815857 391.530396,392.967316 
	C402.528107,388.656494 405.014404,377.156677 396.790161,365.701904 
M228.662903,380.479614 
	C228.662903,384.873932 228.662903,389.268280 228.662903,393.537537 
	C236.282089,393.537537 243.017059,393.537537 249.626724,393.537537 
	C249.626724,391.077759 249.626724,389.000275 249.626724,386.558472 
	C246.321991,386.558472 243.338120,386.433807 240.368668,386.587646 
	C235.884735,386.819946 235.308884,384.748413 236.869843,380.702637 
	C240.997498,380.702637 245.073364,380.702637 249.150711,380.702637 
	C249.150711,378.136932 249.150711,376.070007 249.150711,373.543854 
	C246.171158,373.543854 243.542938,373.565063 240.915176,373.539276 
	C236.065872,373.491638 236.065979,373.480133 236.831284,368.674744 
	C240.984009,368.674744 245.235947,368.674744 249.490906,368.674744 
	C249.490906,365.929230 249.490906,363.731476 249.490906,361.419037 
	C242.446915,361.419037 235.844864,361.419037 228.664856,361.419037 
	C228.664856,367.577148 228.664856,373.531921 228.662903,380.479614 
M338.735504,383.838837 
	C344.982849,380.694305 347.053223,377.054382 346.177612,370.754761 
	C345.499298,365.874786 341.758087,361.885284 336.571320,361.413879 
	C332.004211,360.998810 327.369568,361.327087 322.534973,361.327087 
	C322.534973,372.374847 322.534973,382.925659 322.534973,393.627777 
	C325.082245,393.627777 327.319061,393.627777 329.778107,393.627777 
	C329.930084,390.449036 330.069702,387.528839 330.222900,384.324127 
	C333.007660,384.194946 335.460876,384.081116 338.735504,383.838837 
M288.942261,366.374878 
	C287.875122,367.718262 286.807983,369.061646 285.497498,370.711426 
	C283.336853,367.740448 282.035095,364.664734 279.714294,363.133331 
	C277.542542,361.700256 274.290710,361.903961 270.342346,361.169281 
	C274.051880,366.749207 276.987457,370.777313 279.436249,375.082306 
	C280.180756,376.391205 280.213593,378.815887 279.484772,380.123169 
	C276.943512,384.681427 273.925995,388.974152 271.203766,393.190826 
	C280.337097,397.223206 281.541168,388.439758 285.736633,384.311035 
	C289.583801,389.183136 291.228607,396.656494 300.001862,393.196136 
	C297.489532,389.248077 295.360962,385.088409 292.452057,381.574768 
	C289.855194,378.437988 290.346710,376.274200 292.624908,373.384125 
	C295.343353,369.935577 297.578522,366.106079 300.356415,361.941833 
	C295.515259,361.408905 291.368652,360.532104 288.942261,366.374878 
M188.985367,392.040863 
	C188.985367,383.428589 188.985367,374.816345 188.985367,366.290283 
	C197.519577,364.867493 201.133072,366.013641 202.115997,370.224945 
	C203.188629,374.820709 201.532761,376.047302 191.122299,378.368561 
	C193.727325,385.735748 202.710236,394.081726 207.798767,393.385925 
	C204.679932,389.552917 201.701920,385.892975 198.629410,382.116913 
	C199.304565,381.618195 199.638733,381.269775 200.046982,381.085114 
	C205.406235,378.660767 207.264633,375.540375 206.492172,370.207458 
	C205.789169,365.354248 202.222366,361.575348 197.322418,361.175476 
	C193.253433,360.843353 189.135773,361.107452 184.872345,361.107452 
	C184.872345,372.207489 184.872345,382.815979 184.872345,394.202484 
	C186.452835,393.704071 187.673767,393.319061 188.985367,392.040863 
M147.547745,361.119629 
	C145.389328,361.113861 143.227798,361.179352 141.073212,361.085693 
	C137.818985,360.944244 137.464783,362.445312 138.769379,365.484161 
	C141.632446,365.484161 144.536499,365.484161 147.848602,365.484161 
	C147.848602,374.093842 147.813980,382.200409 147.865021,390.306458 
	C147.886551,393.726440 147.968628,393.725922 152.176270,393.345245 
	C152.176270,384.182648 152.176270,374.964081 152.176270,365.847107 
	C161.823502,364.213684 161.823502,364.213684 161.388824,361.120941 
	C157.131012,361.120941 152.828415,361.120941 147.547745,361.119629 
M324.261017,422.109039 
	C324.089050,421.451447 323.917084,420.793823 323.745148,420.136261 
	C322.880157,420.779694 321.348877,421.356567 321.276672,422.079163 
	C321.070221,424.145935 321.232391,426.332855 321.776550,428.328888 
	C321.902466,428.790894 324.129272,428.680176 324.371002,428.709473 
	C324.063629,426.178589 323.835999,424.304413 324.261017,422.109039 
M474.289398,426.544312 
	C474.334869,425.890533 474.380371,425.236786 474.425842,424.583008 
	C474.148865,424.579651 473.871918,424.576294 473.594940,424.572968 
	C473.623871,425.228088 473.652802,425.883240 474.289398,426.544312 
M472.820984,422.237122 
	C472.877869,422.408569 472.934753,422.579987 472.991638,422.751434 
	C473.047028,422.578705 473.102417,422.405945 472.820984,422.237122 
z"/>
<path fill="#14677B" opacity="1.000000" stroke="none" 
	d="
M379.393066,238.952744 
	C379.393188,250.559433 379.393188,261.674225 379.393188,273.669891 
	C371.137390,270.019928 363.586395,266.748718 356.128998,263.276459 
	C355.416595,262.944763 354.941132,261.359100 354.939301,260.354523 
	C354.878448,227.253830 354.889008,194.153000 354.889008,159.682755 
	C358.985504,164.529175 362.335876,168.464874 365.654114,172.427414 
	C368.311890,175.601227 370.752808,178.977966 373.607758,181.960419 
	C378.107086,186.660706 379.813232,191.892197 379.549103,198.532135 
	C379.020416,211.822739 379.392670,225.149200 379.393066,238.952744 
z"/>
<path fill="#15687B" opacity="1.000000" stroke="none" 
	d="
M307.262695,184.459167 
	C298.241211,189.699066 289.224365,194.946945 280.195312,200.173752 
	C277.654999,201.644302 275.078918,203.053009 272.364777,204.576797 
	C271.935944,201.629486 271.586090,199.224930 271.240295,196.096756 
	C271.457977,193.516510 271.671600,191.659882 271.885254,189.803268 
	C271.866058,186.581192 271.846832,183.359116 271.921631,179.263397 
	C272.019348,176.635681 272.023071,174.881607 272.026794,173.127518 
	C271.962921,169.794250 271.899017,166.460968 271.928040,162.277267 
	C272.006378,160.604706 271.991821,159.782593 271.977234,158.960480 
	C283.069458,152.656097 294.161652,146.351730 305.906464,140.279083 
	C306.702820,147.334229 306.846588,154.157639 306.980286,161.451630 
	C307.067688,169.434509 307.165192,176.946838 307.262695,184.459167 
z"/>
<path fill="#1C6A7C" opacity="1.000000" stroke="none" 
	d="
M282.978119,260.882935 
	C267.921753,264.901215 252.879120,268.971802 237.806076,272.926483 
	C209.711258,280.297668 181.601013,287.610168 153.490417,294.921082 
	C150.298187,295.751312 147.062607,296.414795 143.847122,297.155640 
	C143.487350,296.793182 143.127594,296.430725 142.767822,296.068268 
	C143.669342,295.050354 144.379059,293.493134 145.500717,293.094177 
	C168.007080,285.089203 190.553711,277.197083 213.107193,269.325043 
	C235.505325,261.507233 257.917633,253.729858 280.333618,245.963425 
	C281.562866,245.537506 282.883392,245.374939 284.263855,245.445450 
	C283.914307,247.253159 283.153992,248.687973 283.071594,250.160690 
	C282.872192,253.725357 282.988861,257.307709 282.978119,260.882935 
z"/>
<path fill="#1D6A7C" opacity="1.000000" stroke="none" 
	d="
M283.216278,286.288391 
	C268.439453,288.482697 253.667358,290.709625 238.884705,292.863922 
	C214.384003,296.434479 189.880295,299.985229 165.369446,303.485352 
	C158.150848,304.516144 150.903870,305.348053 143.669891,306.271118 
	C143.383698,305.826599 143.097488,305.382080 142.811279,304.937561 
	C144.148956,304.025879 145.372787,302.619537 146.842422,302.281311 
	C157.847885,299.748688 168.913040,297.477051 179.938675,295.029907 
	C212.680542,287.762848 245.411911,280.448303 278.152405,273.174957 
	C279.446045,272.887573 280.791138,272.831757 282.554932,273.169556 
	C283.070526,277.876831 283.143402,282.082611 283.216278,286.288391 
z"/>
<path fill="#238495" opacity="1.000000" stroke="none" 
	d="
M283.358978,260.942780 
	C282.988861,257.307709 282.872192,253.725357 283.071594,250.160690 
	C283.153992,248.687973 283.914307,247.253159 284.641968,245.548859 
	C310.500610,255.085693 336.090454,264.856964 361.663544,274.671875 
	C373.138062,279.075806 384.591797,283.534973 396.017487,288.063599 
	C397.291107,288.568481 398.318695,289.694122 399.460388,290.531860 
	C399.176422,290.962799 398.892456,291.393707 398.608490,291.824615 
	C360.318939,281.550629 322.029388,271.276611 283.358978,260.942780 
z"/>
<path fill="#1D6B7D" opacity="1.000000" stroke="none" 
	d="
M282.999329,311.624573 
	C258.685638,312.048584 234.372025,312.477844 210.058212,312.894989 
	C189.570724,313.246521 169.083038,313.585846 148.595322,313.924072 
	C146.946671,313.951294 145.297165,313.927612 143.648056,313.927612 
	C143.401337,313.447388 143.154633,312.967133 142.907913,312.486908 
	C144.158203,311.813324 145.363892,310.663879 146.665878,310.541870 
	C156.609238,309.609955 166.574600,308.916412 176.527069,308.077087 
	C202.900986,305.852875 229.268524,303.552155 255.645859,301.369568 
	C264.440796,300.641876 273.257751,300.180115 282.532471,300.140686 
	C282.999939,304.331268 282.999634,307.977936 282.999329,311.624573 
z"/>
<path fill="#248596" opacity="1.000000" stroke="none" 
	d="
M283.613403,286.435394 
	C283.143402,282.082611 283.070526,277.876831 282.989838,273.193085 
	C290.405640,274.176483 297.891907,275.377319 305.241913,277.144806 
	C335.272034,284.366241 365.265900,291.739044 395.249176,299.152985 
	C396.813141,299.539703 398.156342,300.819183 399.602325,301.683014 
	C399.324158,302.223267 399.045990,302.763550 398.767822,303.303802 
	C360.515411,297.730011 322.262970,292.156219 283.613403,286.435394 
z"/>
<path fill="#1E6B7D" opacity="1.000000" stroke="none" 
	d="
M283.023590,332.982056 
	C268.779266,331.877655 254.527512,330.860291 240.292343,329.648315 
	C219.095901,327.843719 197.908630,325.929260 176.722473,324.006378 
	C166.300186,323.060394 155.885803,322.022308 145.478790,320.922302 
	C144.542435,320.823334 143.686707,319.961731 142.793533,319.454346 
	C142.945297,318.936523 143.097076,318.418671 143.248856,317.900848 
	C189.538956,319.279236 235.829041,320.657623 282.559570,322.575714 
	C283.007874,326.404327 283.015717,329.693176 283.023590,332.982056 
z"/>
<path fill="#258595" opacity="1.000000" stroke="none" 
	d="
M283.459900,311.706573 
	C282.999634,307.977936 282.999939,304.331268 282.996185,300.210388 
	C294.056671,300.621399 305.133057,301.380157 316.183228,302.418365 
	C338.855286,304.548492 361.513947,306.821198 384.176331,309.053406 
	C388.145782,309.444366 392.126556,309.800201 396.059204,310.437103 
	C397.261810,310.631866 398.321198,311.710999 399.446167,312.385162 
	C399.271454,312.861359 399.096741,313.337585 398.921997,313.813812 
	C360.588135,313.138733 322.254303,312.463654 283.459900,311.706573 
z"/>
<path fill="#1C8294" opacity="1.000000" stroke="none" 
	d="
M161.676697,248.693848 
	C161.138046,244.775970 162.396439,242.520477 165.512039,240.496017 
	C171.280853,236.747604 176.643768,232.374542 183.081299,227.588394 
	C183.081299,239.730164 183.081650,250.764862 183.081192,261.799561 
	C183.080734,272.957245 183.075012,272.944122 172.818832,277.161896 
	C169.346207,278.589996 165.908493,280.103027 161.677444,281.909088 
	C161.677444,270.316803 161.677444,259.718109 161.676697,248.693848 
z"/>
<path fill="#278696" opacity="1.000000" stroke="none" 
	d="
M283.339844,333.113098 
	C283.015717,329.693176 283.007874,326.404327 283.003174,322.673340 
	C320.940247,321.503662 358.874084,320.774628 396.808258,320.060669 
	C397.439667,320.048767 398.074585,320.219360 398.775208,321.064880 
	C360.450378,325.658661 322.125092,330.097412 283.339844,333.113098 
z"/>
<path fill="#268596" opacity="1.000000" stroke="none" 
	d="
M397.052704,365.956238 
	C405.014404,377.156677 402.528107,388.656494 391.530396,392.967316 
	C384.263153,395.815857 375.755188,393.432465 371.472168,387.348358 
	C367.312042,381.438690 368.034668,371.884125 373.047546,366.518951 
	C378.735626,360.431183 386.690887,359.356567 393.915527,363.725159 
	C394.908936,364.325867 395.833649,365.040192 397.052704,365.956238 
M382.262787,386.739441 
	C386.787354,387.848694 391.201904,386.901520 392.934265,382.669769 
	C394.136902,379.731964 393.833099,375.427582 392.566071,372.424042 
	C391.081207,368.904114 387.259888,367.740936 383.185669,368.652100 
	C379.062408,369.574219 376.815948,372.325165 376.227692,376.201721 
	C375.545471,380.697937 377.038116,384.416138 382.262787,386.739441 
z"/>
<path fill="#268596" opacity="1.000000" stroke="none" 
	d="
M228.663879,379.983154 
	C228.664856,373.531921 228.664856,367.577148 228.664856,361.419037 
	C235.844864,361.419037 242.446915,361.419037 249.490906,361.419037 
	C249.490906,363.731476 249.490906,365.929230 249.490906,368.674744 
	C245.235947,368.674744 240.984009,368.674744 236.831284,368.674744 
	C236.065979,373.480133 236.065872,373.491638 240.915176,373.539276 
	C243.542938,373.565063 246.171158,373.543854 249.150711,373.543854 
	C249.150711,376.070007 249.150711,378.136932 249.150711,380.702637 
	C245.073364,380.702637 240.997498,380.702637 236.869843,380.702637 
	C235.308884,384.748413 235.884735,386.819946 240.368668,386.587646 
	C243.338120,386.433807 246.321991,386.558472 249.626724,386.558472 
	C249.626724,389.000275 249.626724,391.077759 249.626724,393.537537 
	C243.017059,393.537537 236.282089,393.537537 228.662903,393.537537 
	C228.662903,389.268280 228.662903,384.873932 228.663879,379.983154 
z"/>
<path fill="#218495" opacity="1.000000" stroke="none" 
	d="
M306.990356,160.981064 
	C306.846588,154.157639 306.702820,147.334229 306.258545,140.210831 
	C307.269989,140.115570 309.138580,139.835983 309.805298,140.602203 
	C314.812347,146.356506 320.097046,151.986649 324.191162,158.364182 
	C326.005066,161.189758 325.040558,165.699066 325.732056,169.369705 
	C326.649353,174.238815 323.746735,176.103302 320.065247,177.869034 
	C316.191711,179.726837 312.506622,181.977600 308.375305,183.557312 
	C308.015167,180.236923 308.142639,177.409332 307.994446,174.596268 
	C307.755157,170.052856 307.334442,165.518967 306.990356,160.981064 
z"/>
<path fill="#298798" opacity="1.000000" stroke="none" 
	d="
M338.324829,383.903076 
	C335.460876,384.081116 333.007660,384.194946 330.222900,384.324127 
	C330.069702,387.528839 329.930084,390.449036 329.778107,393.627777 
	C327.319061,393.627777 325.082245,393.627777 322.534973,393.627777 
	C322.534973,382.925659 322.534973,372.374847 322.534973,361.327087 
	C327.369568,361.327087 332.004211,360.998810 336.571320,361.413879 
	C341.758087,361.885284 345.499298,365.874786 346.177612,370.754761 
	C347.053223,377.054382 344.982849,380.694305 338.324829,383.903076 
M338.607178,375.027832 
	C339.136078,368.795868 337.245392,367.583862 330.325317,369.593384 
	C330.325317,372.020660 330.325317,374.402496 330.325317,377.552002 
	C333.268036,376.870117 335.709503,376.304382 338.607178,375.027832 
z"/>
<path fill="#288696" opacity="1.000000" stroke="none" 
	d="
M289.141724,366.068115 
	C291.368652,360.532104 295.515259,361.408905 300.356415,361.941833 
	C297.578522,366.106079 295.343353,369.935577 292.624908,373.384125 
	C290.346710,376.274200 289.855194,378.437988 292.452057,381.574768 
	C295.360962,385.088409 297.489532,389.248077 300.001862,393.196136 
	C291.228607,396.656494 289.583801,389.183136 285.736633,384.311035 
	C281.541168,388.439758 280.337097,397.223206 271.203766,393.190826 
	C273.925995,388.974152 276.943512,384.681427 279.484772,380.123169 
	C280.213593,378.815887 280.180756,376.391205 279.436249,375.082306 
	C276.987457,370.777313 274.051880,366.749207 270.342346,361.169281 
	C274.290710,361.903961 277.542542,361.700256 279.714294,363.133331 
	C282.035095,364.664734 283.336853,367.740448 285.497498,370.711426 
	C286.807983,369.061646 287.875122,367.718262 289.141724,366.068115 
z"/>
<path fill="#1D6B7D" opacity="1.000000" stroke="none" 
	d="
M245.993561,225.800217 
	C228.851395,227.203903 211.709229,228.607590 194.241760,230.037918 
	C194.241760,226.924728 194.241760,224.343460 194.241760,221.348404 
	C211.183456,219.893005 228.143158,218.436050 245.549774,217.505142 
	C245.995651,220.620865 245.994598,223.210541 245.993561,225.800217 
z"/>
<path fill="#1D6B7D" opacity="1.000000" stroke="none" 
	d="
M243.098236,205.689941 
	C226.936081,208.232407 210.773926,210.774872 194.232819,213.376953 
	C194.232819,210.269501 194.232819,207.862625 194.232819,205.108231 
	C210.401520,202.303604 226.532623,199.505508 243.337112,196.774124 
	C244.313446,196.684830 244.616394,196.528824 244.919342,196.372818 
	C245.099716,196.321182 245.280106,196.269547 245.719543,196.728500 
	C245.551056,200.237579 247.694717,204.112396 243.098236,205.689941 
z"/>
<path fill="#1D6B7D" opacity="1.000000" stroke="none" 
	d="
M245.987457,184.694107 
	C228.887344,188.663193 211.787247,192.632278 194.275284,196.696960 
	C194.275284,193.976898 194.275284,191.735352 194.275284,188.993881 
	C210.760681,184.645035 227.384384,180.259705 244.736847,175.910034 
	C245.682236,175.920181 245.898849,175.894669 246.115479,175.869141 
	C246.115479,175.869141 246.088074,175.927353 246.067017,176.342422 
	C246.026459,179.403030 246.006958,182.048569 245.987457,184.694107 
z"/>
<path fill="#1F6D7E" opacity="1.000000" stroke="none" 
	d="
M245.915039,164.081665 
	C228.847961,169.362289 211.780899,174.642914 194.311401,180.048065 
	C194.311401,177.745468 194.311401,175.701981 194.311401,173.019196 
	C211.073074,167.013916 228.166824,160.889664 245.636841,155.297760 
	C245.980392,158.580612 245.947723,161.331146 245.915039,164.081665 
z"/>
<path fill="#1F6D7E" opacity="1.000000" stroke="none" 
	d="
M245.993729,143.753876 
	C228.816864,150.215851 211.639999,156.677826 194.460815,163.140656 
	C192.932678,158.862854 194.576828,157.050339 198.277878,155.415054 
	C214.039047,148.451126 229.635895,141.115265 245.645081,134.458282 
	C245.996201,137.918884 245.994965,140.836395 245.993729,143.753876 
z"/>
<path fill="#1B5F75" opacity="1.000000" stroke="none" 
	d="
M188.940033,392.487427 
	C187.673767,393.319061 186.452835,393.704071 184.872345,394.202484 
	C184.872345,382.815979 184.872345,372.207489 184.872345,361.107452 
	C189.135773,361.107452 193.253433,360.843353 197.322418,361.175476 
	C202.222366,361.575348 205.789169,365.354248 206.492172,370.207458 
	C207.264633,375.540375 205.406235,378.660767 200.046982,381.085114 
	C199.638733,381.269775 199.304565,381.618195 198.629410,382.116913 
	C201.701920,385.892975 204.679932,389.552917 207.798767,393.385925 
	C202.710236,394.081726 193.727325,385.735748 191.122299,378.368561 
	C201.532761,376.047302 203.188629,374.820709 202.115997,370.224945 
	C201.133072,366.013641 197.519577,364.867493 188.985367,366.290283 
	C188.985367,374.816345 188.985367,383.428589 188.940033,392.487427 
z"/>
<path fill="#1F6D7E" opacity="1.000000" stroke="none" 
	d="
M245.911316,123.061752 
	C228.877396,130.834824 211.843491,138.607910 194.809570,146.380997 
	C194.365631,146.075729 193.921707,145.770477 193.477768,145.465210 
	C194.407211,143.823822 194.921707,141.460297 196.329498,140.651382 
	C212.579941,131.313889 228.965683,122.211853 245.656876,113.562988 
	C245.969284,117.073067 245.940308,120.067413 245.911316,123.061752 
z"/>
<path fill="#1B5F75" opacity="1.000000" stroke="none" 
	d="
M148.036774,361.120300 
	C152.828415,361.120941 157.131012,361.120941 161.388824,361.120941 
	C161.823502,364.213684 161.823502,364.213684 152.176270,365.847107 
	C152.176270,374.964081 152.176270,384.182648 152.176270,393.345245 
	C147.968628,393.725922 147.886551,393.726440 147.865021,390.306458 
	C147.813980,382.200409 147.848602,374.093842 147.848602,365.484161 
	C144.536499,365.484161 141.632446,365.484161 138.769379,365.484161 
	C137.464783,362.445312 137.818985,360.944244 141.073212,361.085693 
	C143.227798,361.179352 145.389328,361.113861 148.036774,361.120300 
z"/>
<path fill="#268596" opacity="1.000000" stroke="none" 
	d="
M246.328659,184.824478 
	C246.006958,182.048569 246.026459,179.403030 246.086945,176.308472 
	C252.449814,179.434631 258.765045,183.021606 265.097412,186.578110 
	C267.104431,187.705338 269.157166,188.751282 271.537109,189.818848 
	C271.671600,191.659882 271.457977,193.516510 271.081207,195.741333 
	C262.835327,192.391327 254.752594,188.673080 246.328659,184.824478 
z"/>
<path fill="#298798" opacity="1.000000" stroke="none" 
	d="
M246.258743,164.262512 
	C245.947723,161.331146 245.980392,158.580612 246.032059,155.396759 
	C252.849960,160.190536 259.626617,165.447052 266.464935,170.622086 
	C267.990875,171.776871 269.733429,172.645447 271.701508,173.386658 
	C272.023071,174.881607 272.019348,176.635681 271.932678,178.825958 
	C263.433990,174.322571 255.018204,169.382965 246.258743,164.262512 
z"/>
<path fill="#288696" opacity="1.000000" stroke="none" 
	d="
M243.517273,205.750961 
	C247.694717,204.112396 245.551056,200.237579 245.984253,196.824127 
	C253.881363,199.344513 261.772827,202.279861 270.078613,205.369308 
	C265.959656,208.939362 262.133148,210.731079 256.837250,208.762177 
	C252.737946,207.238159 248.250961,206.756851 243.517273,205.750961 
z"/>
<path fill="#2C8796" opacity="1.000000" stroke="none" 
	d="
M246.312958,143.894760 
	C245.994965,140.836395 245.996201,137.918884 246.012177,134.563538 
	C252.834808,140.720123 259.646912,147.310257 266.447571,153.912109 
	C268.096985,155.513336 269.708893,157.153198 271.657654,158.867874 
	C271.991821,159.782593 272.006378,160.604706 271.942749,161.831360 
	C264.658783,157.035477 257.453278,151.834732 250.247116,146.634918 
	C249.043594,145.766479 247.837250,144.901962 246.312958,143.894760 
z"/>
<path fill="#2C8796" opacity="1.000000" stroke="none" 
	d="
M246.239548,123.257309 
	C245.940308,120.067413 245.969284,117.073067 246.005432,113.653168 
	C254.733337,122.017349 262.132202,131.829956 269.544342,141.632309 
	C269.094452,142.026794 268.644562,142.421295 268.194702,142.815796 
	C264.702332,139.624359 261.235626,136.404297 257.710602,133.249390 
	C254.025543,129.951248 250.284393,126.715759 246.239548,123.257309 
z"/>
<path fill="#1E6B7D" opacity="1.000000" stroke="none" 
	d="
M244.964676,246.052261 
	C237.208511,243.684647 229.452332,241.317017 221.383728,238.695816 
	C221.071274,238.442230 221.070999,238.065628 221.070999,238.065628 
	C229.071976,237.927231 237.072968,237.788834 245.537781,238.220474 
	C246.021347,241.213577 246.041092,243.636642 246.060822,246.059708 
	C246.060822,246.059708 246.009750,245.998398 245.759125,246.002060 
	C245.327225,246.021240 245.145950,246.036743 244.964676,246.052261 
z"/>
<path fill="#2C8796" opacity="1.000000" stroke="none" 
	d="
M246.383667,225.903503 
	C245.994598,223.210541 245.995651,220.620865 246.000122,217.599457 
	C249.547195,217.769455 253.589584,217.540756 256.459473,219.264328 
	C258.378326,220.416733 258.630371,224.344589 260.103210,228.308578 
	C254.426331,227.328278 250.600052,226.667542 246.383667,225.903503 
z"/>
<path fill="#288696" opacity="1.000000" stroke="none" 
	d="
M246.436035,246.055786 
	C246.041092,243.636642 246.021347,241.213577 245.993835,238.335617 
	C250.091888,237.880722 254.197708,237.880722 259.338776,237.880722 
	C256.965271,244.196869 250.861862,243.667236 246.436035,246.055786 
z"/>
<path fill="#D7DADA" opacity="1.000000" stroke="none" 
	d="
M323.934692,422.269653 
	C323.835999,424.304413 324.063629,426.178589 324.371002,428.709473 
	C324.129272,428.680176 321.902466,428.790894 321.776550,428.328888 
	C321.232391,426.332855 321.070221,424.145935 321.276672,422.079163 
	C321.348877,421.356567 322.880157,420.779694 323.745148,420.136230 
	C323.917084,420.793823 324.089050,421.451447 323.934692,422.269653 
z"/>
<path fill="#2C8796" opacity="1.000000" stroke="none" 
	d="
M306.980255,161.451630 
	C307.334442,165.518967 307.755157,170.052856 307.994446,174.596268 
	C308.142639,177.409332 308.015167,180.236923 308.009216,183.526154 
	C308.007019,183.994308 307.704468,184.338959 307.483582,184.399063 
	C307.165192,176.946838 307.067688,169.434509 306.980255,161.451630 
z"/>
<path fill="#F9FCFC" opacity="1.000000" stroke="none" 
	d="
M468.031647,425.968994 
	C469.144318,426.616486 470.256989,427.263977 471.369629,427.911438 
	C471.122803,428.343201 470.875977,428.774933 470.629150,429.206696 
	C469.672333,428.340393 468.715515,427.474091 467.879639,426.303528 
	C468.000580,425.999298 468.031647,425.968994 468.031647,425.968994 
z"/>
<path fill="#F9FCFC" opacity="1.000000" stroke="none" 
	d="
M467.984894,426.014282 
	C467.439209,424.789215 466.909210,423.549225 466.379211,422.309235 
	C466.924133,422.176178 467.469086,422.043152 468.014008,421.910095 
	C468.014008,423.021790 468.014008,424.133453 468.022827,425.607056 
	C468.031647,425.968994 468.000580,425.999298 467.984894,426.014282 
z"/>
<path fill="#F9FCFC" opacity="1.000000" stroke="none" 
	d="
M473.985596,426.541321 
	C473.652802,425.883240 473.623871,425.228088 473.594940,424.572968 
	C473.871918,424.576294 474.148865,424.579651 474.425842,424.583008 
	C474.380371,425.236786 474.334869,425.890533 473.985596,426.541321 
z"/>
<path fill="#288696" opacity="1.000000" stroke="none" 
	d="
M220.939178,237.855377 
	C221.070999,238.065628 221.071274,238.442230 221.032288,238.530182 
	C220.723160,238.546204 220.390045,238.548553 220.197296,238.385254 
	C219.893356,238.127777 219.683716,237.759018 219.344147,237.321335 
	C219.953308,237.456146 220.380325,237.550644 220.939178,237.855377 
z"/>
<path fill="#F9FCFC" opacity="1.000000" stroke="none" 
	d="
M472.989380,422.235168 
	C473.102417,422.405945 473.047028,422.578705 472.991638,422.751434 
	C472.934753,422.579987 472.877869,422.408569 472.989380,422.235168 
z"/>
<path fill="#288696" opacity="1.000000" stroke="none" 
	d="
M245.069092,246.205994 
	C245.145950,246.036743 245.327225,246.021240 245.779633,246.035049 
	C245.758347,246.162827 245.465927,246.261261 245.069092,246.205994 
z"/>
<path fill="#268596" opacity="1.000000" stroke="none" 
	d="
M246.006317,175.686172 
	C245.898849,175.894669 245.682236,175.920181 245.141342,175.906006 
	C245.177109,175.745270 245.537140,175.624237 246.006317,175.686172 
z"/>
<path fill="#288696" opacity="1.000000" stroke="none" 
	d="
M244.661713,196.309280 
	C244.616394,196.528824 244.313446,196.684830 243.750092,196.780640 
	C243.794479,196.562210 244.099289,196.403976 244.661713,196.309280 
z"/>
<path fill="#F9FCFC" opacity="1.000000" stroke="none" 
	d="
M381.905518,386.556763 
	C377.038116,384.416138 375.545471,380.697937 376.227692,376.201721 
	C376.815948,372.325165 379.062408,369.574219 383.185669,368.652100 
	C387.259888,367.740936 391.081207,368.904114 392.566071,372.424042 
	C393.833099,375.427582 394.136902,379.731964 392.934265,382.669769 
	C391.201904,386.901520 386.787354,387.848694 381.905518,386.556763 
z"/>
<path fill="#F9FCFC" opacity="1.000000" stroke="none" 
	d="
M338.379089,375.383240 
	C335.709503,376.304382 333.268036,376.870117 330.325317,377.552002 
	C330.325317,374.402496 330.325317,372.020660 330.325317,369.593384 
	C337.245392,367.583862 339.136078,368.795868 338.379089,375.383240 
z"/>
</svg>