<?xml version="1.0" standalone="no"?>
<!DOCTYPE svg PUBLIC "-//W3C//DTD SVG 20010904//EN"
 "http://www.w3.org/TR/2001/REC-SVG-20010904/DTD/svg10.dtd">
<svg version="1.0" xmlns="http://www.w3.org/2000/svg"
 width="1275.000000pt" height="1651.000000pt" viewBox="0 0 1275.000000 1651.000000"
 preserveAspectRatio="xMidYMid meet">
<metadata>
Created by potrace 1.16, written by Peter Selinger 2001-2019
</metadata>
<g transform="translate(0.000000,1651.000000) scale(0.100000,-0.100000)"
fill="#000000" stroke="none">
<path d="M1190 15290 c0 -5 11 -10 25 -10 23 0 24 -4 28 -62 l3 -63 2 63 c2
59 3 62 27 62 14 0 25 5 25 10 0 6 -25 10 -55 10 -30 0 -55 -4 -55 -10z"/>
<path d="M1327 15293 c-11 -10 -8 -133 3 -133 6 0 10 14 10 30 0 19 5 30 14
30 8 0 23 -13 33 -30 9 -16 21 -30 25 -30 12 0 10 8 -7 34 -14 21 -14 24 0 36
21 17 19 47 -4 60 -22 11 -64 13 -74 3z m70 -29 c7 -18 -14 -35 -37 -31 -8 1
-16 12 -18 25 -3 18 1 22 23 22 14 0 28 -7 32 -16z"/>
<path d="M1450 15230 l0 -70 51 0 c31 0 48 4 44 10 -3 6 -22 10 -41 10 -27 0
-34 4 -34 20 0 15 7 20 29 20 17 0 33 5 36 10 4 6 -8 10 -29 10 -29 0 -36 4
-36 20 0 16 7 20 35 20 19 0 35 5 35 10 0 6 -20 10 -45 10 l-45 0 0 -70z"/>
<path d="M1570 15294 c0 -3 9 -18 20 -33 l19 -28 -25 -36 c-17 -26 -21 -37
-11 -37 8 0 19 11 25 25 6 14 16 25 22 25 6 0 16 -11 22 -25 6 -14 18 -25 26
-25 10 0 7 10 -12 35 l-27 35 20 29 c23 32 26 41 13 41 -5 0 -15 -11 -22 -25
-7 -14 -16 -25 -20 -25 -4 0 -13 11 -20 25 -12 23 -30 34 -30 19z"/>
<path d="M1700 15230 c0 -40 4 -70 10 -70 6 0 10 11 10 24 0 18 7 25 29 29 17
4 35 16 42 28 10 20 8 25 -11 41 -12 10 -35 18 -51 18 l-29 0 0 -70z m73 38
c7 -23 -4 -38 -29 -38 -19 0 -24 5 -24 25 0 20 5 25 24 25 13 0 26 -6 29 -12z"/>
<path d="M1836 15284 c-18 -18 -21 -76 -6 -105 7 -12 21 -19 40 -19 35 0 50
23 50 74 0 38 -21 66 -50 66 -10 0 -26 -7 -34 -16z m62 -50 c2 -27 -2 -45 -13
-54 -23 -19 -45 5 -45 50 0 43 7 52 35 48 16 -2 21 -12 23 -44z"/>
</g>
</svg>
